<svg xmlns="http://www.w3.org/2000/svg" viewBox="0 0 512 512">
  <defs>
    <linearGradient id="bg" x1="0" y1="0" x2="1" y2="1">
      <stop offset="0%" stop-color="#FFB347"/>
      <stop offset="55%" stop-color="#FF8A65"/>
      <stop offset="100%" stop-color="#F06292"/>
    </linearGradient>
    <radialGradient id="coinGrad" cx="0.35" cy="0.3" r="0.8">
      <stop offset="0%" stop-color="#FFF3B0"/>
      <stop offset="60%" stop-color="#FFD54F"/>
      <stop offset="100%" stop-color="#F9A825"/>
    </radialGradient>
    <linearGradient id="catFur" x1="0" y1="0" x2="0" y2="1">
      <stop offset="0%" stop-color="#FFC78A"/>
      <stop offset="100%" stop-color="#E08A3C"/>
    </linearGradient>
    <radialGradient id="cheekGlow" cx="0.5" cy="0.5" r="0.6">
      <stop offset="0%" stop-color="#FFB6C1" stop-opacity="0.95"/>
      <stop offset="100%" stop-color="#FFB6C1" stop-opacity="0"/>
    </radialGradient>
  </defs>
  <rect width="512" height="512" fill="url(#bg)"/>
  <path d="M138 188 L172 92 L240 178 Z" fill="url(#catFur)" stroke="#a85a16" stroke-width="4" stroke-linejoin="round"/>
  <path d="M374 188 L340 92 L272 178 Z" fill="url(#catFur)" stroke="#a85a16" stroke-width="4" stroke-linejoin="round"/>
  <path d="M158 168 L182 116 L222 168 Z" fill="#FFB6C1"/>
  <path d="M354 168 L330 116 L290 168 Z" fill="#FFB6C1"/>
  <ellipse cx="256" cy="258" rx="172" ry="148" fill="url(#catFur)" stroke="#a85a16" stroke-width="5"/>
  <ellipse cx="256" cy="350" rx="120" ry="38" fill="url(#catFur)" opacity="0.85"/>
  <path d="M134 222 q18 -12 36 0" stroke="#c66e1f" stroke-width="7" fill="none" stroke-linecap="round"/>
  <path d="M342 222 q18 -12 36 0" stroke="#c66e1f" stroke-width="7" fill="none" stroke-linecap="round"/>
  <path d="M148 256 q18 -10 36 0" stroke="#c66e1f" stroke-width="6" fill="none" stroke-linecap="round"/>
  <path d="M328 256 q18 -10 36 0" stroke="#c66e1f" stroke-width="6" fill="none" stroke-linecap="round"/>
  <ellipse cx="170" cy="300" rx="36" ry="22" fill="url(#cheekGlow)"/>
  <ellipse cx="342" cy="300" rx="36" ry="22" fill="url(#cheekGlow)"/>
  <path d="M192 250 q18 -20 36 0" stroke="#3a2410" stroke-width="9" fill="none" stroke-linecap="round"/>
  <path d="M284 250 q18 -20 36 0" stroke="#3a2410" stroke-width="9" fill="none" stroke-linecap="round"/>
  <path d="M246 282 L266 282 L256 296 Z" fill="#FF6B9D" stroke="#a8467a" stroke-width="1.8"/>
  <path d="M256 296 q-12 16 -26 9" stroke="#3a2410" stroke-width="4" fill="none" stroke-linecap="round"/>
  <path d="M256 296 q12 16 26 9" stroke="#3a2410" stroke-width="4" fill="none" stroke-linecap="round"/>
  <line x1="100" y1="282" x2="160" y2="288" stroke="#5d3a1a" stroke-width="3" stroke-linecap="round"/>
  <line x1="100" y1="306" x2="160" y2="304" stroke="#5d3a1a" stroke-width="3" stroke-linecap="round"/>
  <line x1="412" y1="282" x2="352" y2="288" stroke="#5d3a1a" stroke-width="3" stroke-linecap="round"/>
  <line x1="412" y1="306" x2="352" y2="304" stroke="#5d3a1a" stroke-width="3" stroke-linecap="round"/>
  <circle cx="256" cy="418" r="62" fill="url(#coinGrad)" stroke="#b8770a" stroke-width="5"/>
  <circle cx="256" cy="418" r="50" fill="none" stroke="#fff7d6" stroke-width="2.5" opacity="0.7"/>
  <text x="256" y="448" font-family="DM Mono, monospace" font-size="78" font-weight="900" text-anchor="middle" fill="#7a4d05">$</text>
  <ellipse cx="186" cy="416" rx="36" ry="28" fill="url(#catFur)" stroke="#a85a16" stroke-width="4"/>
  <ellipse cx="326" cy="416" rx="36" ry="28" fill="url(#catFur)" stroke="#a85a16" stroke-width="4"/>
  <circle cx="186" cy="416" r="6" fill="#FFB6C1" opacity="0.6"/>
  <circle cx="326" cy="416" r="6" fill="#FFB6C1" opacity="0.6"/>
</svg>
